<?xml version="1.0" encoding="utf-8"?>
<!-- Generator: Adobe Illustrator 27.5.0, SVG Export Plug-In . SVG Version: 6.00 Build 0)  -->
<svg version="1.1" xmlns="http://www.w3.org/2000/svg" xmlns:xlink="http://www.w3.org/1999/xlink" x="0px" y="0px"
	 viewBox="0 0 1122 1122" style="enable-background:new 0 0 1122 1122;" xml:space="preserve">
<g id="Bg">
	<g>
		<g>
			<rect style="fill:#FFFFFF;" width="1122" height="1122"/>
		</g>
	</g>
</g>
<g id="Object">
	<g>
		<rect x="456.611" y="232.345" style="fill:none;" width="213.862" height="10.984"/>
		<path style="fill:#616E7D;" d="M434.766,290.983v-47.654h-85.742c-9.393,0-18.559,3.801-25.186,10.434
			c-6.63,6.63-10.418,15.802-10.418,25.18v596.936c0,9.383,3.788,18.555,10.418,25.177c6.627,6.639,15.793,10.437,25.186,10.437
			h423.953c9.374,0,18.555-3.798,25.164-10.437c6.633-6.621,10.44-15.793,10.44-25.177V278.942c0-9.378-3.807-18.55-10.44-25.18
			c-6.609-6.633-15.79-10.434-25.164-10.434h-80.662v47.654h80.662v549.285v17.115H349.024v-566.4H434.766z"/>
		<rect x="456.611" y="243.329" style="fill:#616E7D;" width="213.862" height="47.654"/>
		<path style="fill:#FFFFFF;" d="M349.024,290.983v566.4h423.953v-17.115V290.983h-80.662v33.904c0,2.869-1.162,5.68-3.189,7.716
			c-2.049,2.033-4.851,3.195-7.732,3.195H445.687c-2.874,0-5.701-1.162-7.731-3.195c-2.028-2.036-3.19-4.848-3.19-7.716v-33.904
			H349.024z M737.351,752.234h-352.72v-37.886h352.72V752.234z M737.351,666.489h-352.72v-37.88h352.72V666.489z M737.351,580.749
			h-352.72v-37.88h352.72V580.749z M737.351,495.01h-352.72v-37.895h352.72V495.01z M737.351,371.373v37.892h-352.72v-37.892
			H737.351z"/>
		<rect x="456.611" y="290.983" style="fill:#FFFFFF;" width="213.862" height="22.986"/>
		<path style="fill:#AAD4C8;" d="M445.687,210.508c-2.874,0-5.701,1.159-7.731,3.196c-2.028,2.03-3.19,4.841-3.19,7.716v21.908
			v47.654v33.904c0,2.869,1.162,5.68,3.19,7.716c2.03,2.033,4.857,3.195,7.731,3.195h235.706c2.881,0,5.683-1.162,7.732-3.195
			c2.027-2.036,3.189-4.848,3.189-7.716v-33.904v-47.654v-21.908c0-2.872-1.162-5.686-3.189-7.716
			c-2.049-2.037-4.851-3.196-7.732-3.196H445.687z M670.472,243.329v47.654v22.986H456.611v-22.986v-47.654v-10.984h213.862V243.329
			z"/>
		<rect x="384.631" y="371.373" style="fill:#82BFAB;" width="352.72" height="37.892"/>
		<rect x="384.631" y="457.115" style="fill:#82BFAB;" width="352.72" height="37.895"/>
		<rect x="384.631" y="542.87" style="fill:#82BFAB;" width="352.72" height="37.88"/>
		<rect x="384.631" y="628.609" style="fill:#82BFAB;" width="352.72" height="37.88"/>
		<rect x="384.631" y="714.348" style="fill:#82BFAB;" width="352.72" height="37.886"/>
	</g>
</g>
</svg>
